<svg xmlns="http://www.w3.org/2000/svg" version="1.1" xmlns:xlink="http://www.w3.org/1999/xlink" xmlns:svgjs="http://svgjs.dev/svgjs" width="1000" height="623" viewBox="0 0 1000 623"><g transform="matrix(1,0,0,1,-0.6060606060606233,0.2526924875036798)"><svg viewBox="0 0 396 247" data-background-color="#ffffff" preserveAspectRatio="xMidYMid meet" height="623" width="1000" xmlns="http://www.w3.org/2000/svg" xmlns:xlink="http://www.w3.org/1999/xlink"><g id="tight-bounds" transform="matrix(1,0,0,1,0.2400000000000091,-0.09997365579206985)"><svg viewBox="0 0 395.52 247.2" height="247.2" width="395.52"><g><svg viewBox="0 0 395.52 247.2" height="247.2" width="395.52"><g transform="matrix(1,0,0,1,50.268008313253006,0)"><svg viewBox="0 0 294.98398337349397 247.2" height="247.2" width="294.98398337349397"><g><svg viewBox="0 0 294.98398337349397 247.2" height="247.2" width="294.98398337349397"><g><svg viewBox="0 0 294.98398337349397 247.2" height="247.2" width="294.98398337349397"><g><svg viewBox="0 0 294.98398337349397 247.2" height="247.2" width="294.98398337349397"><g><svg viewBox="0 0 294.98398337349397 247.2" height="247.2" width="294.98398337349397"><path d="M294.293 53.02C292.907 27.36 288.954 20.227 288.954 20.227 276.82-6.202 261.676-0.506 248.072 3.292 224.053 3.446 200.131 9.091 176.167 12.119 125.869 12.581 75.14 4.986 25.091 23.717 20.39 29.464-4.877 24.846 0.836 56.304 2.334 69.39 7.798 83.913 7.631 95.922 8.38 98.026 9.42 93.202 9.864 96.23 11.417 104.39 13.955 100.541 16.035 105.365 13.137 118.246 15.217 128.971 17.2 140.21 13.706 143.135 9.226 141.749 7.215 151.449 7.007 158.479 5.884 157.145 4.65 156.837 3.748 156.632 1.932 157.402 2.237 159.608 3.277 167.152-1.188 171.514 1.613 178.904-0.315 186.91 2.944 193.838 2.5 202.511 2.445 204.255 2.75 205.744 3.235 206.154 5.385 208.361 2.251 212.672 2.584 217.342 24.633 249.262 48.555 227.195 71.146 241.872 77.012 231.608 72.602 245.516 74.946 243.36 76.776 240.846 78.108 251.263 80.174 245.362 80.493 243.668 80.008 239.665 81.145 240.435 81.741 240.846 82.268 240.743 82.351 238.382 82.476 234.841 81.381 237.048 81.089 235.201 84.237 225.861 83.461 248.081 86.415 247.158 86.276 244.438 85.416 240.538 87.177 241.051 88.925 237.151 88.98 233.918 90.533 242.693 90.589 244.592 90.866 245.926 91.31 246.85 96.164 237.305 100.99 250.237 106.079 245.926 109.199 241.205 112.195 248.492 115.357 246.696 116.466 245.259 117.589 242.693 118.657 247.004 131.735 247.928 145.672 244.079 158.07 247.158 191.2 241.41 226.604 249.518 261.538 241.923 269.775 238.998 278.331 234.841 286.361 231.506 286.361 231.506 292.865 222.371 292.865 181.316S294.252 145.393 294.46 112.703C294.668 80.013 295.639 78.679 294.252 53.02Z" opacity="1" fill="#ff4057" data-fill-palette-color="tertiary"></path><g transform="matrix(1,0,0,1,55.76832,26.230666666666668)"><svg width="183.44734337349396" viewBox="0.7799999713897705 -31.979999542236328 30.53999900817871 32.41999816894531" height="194.73866666666666" data-palette-color="#fafafc"><path d="M15.04-26.86L15.04-26.86 15.04-25.76Q14.06-23.73 13.55-22.6 13.04-21.46 13.04-21.04L13.04-21.04Q13.04-20.34 13.84-20.34L13.84-20.34 18.65-30.88Q20.34-31.98 23.25-31.98 26.17-31.98 28.27-30.37L28.27-30.37Q30.57-28.56 30.57-25.44L30.57-25.44Q30.57-22.83 28.78-20.3 27-17.77 24.12-15.92L24.12-15.92Q22.78-16.67 21.7-16.67 20.63-16.67 20.63-15.63L20.63-15.63Q21.75-15.41 22.67-15 23.58-14.6 24.83-13.45L24.83-13.45 31.32-7.47Q30.62 0.44 23.41 0.44L23.41 0.44Q20.75 0.44 18.85-0.93L18.85-0.93Q16.6-2.51 15.33-5.76L15.33-5.76 13.06-11.43 12.94-11.43Q12.13-11.43 12.13-10.74L12.13-10.74Q12.13-10.3 12.82-8.62L12.82-8.62Q13.5-6.79 14.87-3.74L14.87-3.74 14.87-1.86Q12.3 0.44 7.42 0.44L7.42 0.44Q4.79 0.44 2.91-0.76L2.91-0.76Q0.78-2.05 0.78-4.44L0.78-4.44 0.78-29.64Q3.3-31.93 8.42-31.93L8.42-31.93Q11.08-31.93 12.94-30.81L12.94-30.81Q15.04-29.47 15.04-26.86Z" opacity="1" transform="matrix(1,0,0,1,0,0)" fill="#fafafc" class="undefined-text-0" data-fill-palette-color="quaternary" id="text-0"></path></svg></g></svg></g></svg></g></svg></g><g></g></svg></g></svg></g></svg></g><defs></defs></svg><rect width="395.52" height="247.2" fill="none" stroke="none" visibility="hidden"></rect></g></svg></g></svg>